# xmcd CD database file
#
# Track frame offsets:
#	150
#	29829
#	54673
#	77727
#	109515
#	125462
#	148853
#	176193
#	194041
#
# Disc length: 3114 seconds
#
# Revision: 0
# Processed by: cddbd v1.5.1PL0 Copyright (c) Steve Scherf et al.
# Submitted via: CDex 1.51
#
DISCID=890c2809
DTITLE=Ernie Andrews - Jump For Joy
DYEAR=2003
DGENRE=Jazz
TTITLE0=If You Never Fall In Love With Me
TTITLE1=Danger Zone
TTITLE2=Sweet Lorraine
TTITLE3=You Are Too Beautiful
TTITLE4=Jump For Joy
TTITLE5=Close Your Eyes
TTITLE6=If I Were You, Baby, I'd Fall In Love With Me
TTITLE7=Almost In Your Arms
TTITLE8=Solitude
EXTD=YEAR: 2003
EXTT0=
EXTT1=
EXTT2=
EXTT3=
EXTT4=
EXTT5=
EXTT6=
EXTT7=
EXTT8=
PLAYORDER=
